:SAMPLES-PER-SECOND 30
:FULLY-SPECIFIED
:DEGREES
698
root  -65.4284 40.4988 -3.9951 -14.7641 -78.6776 16.7787
RightUpLeg  -14.0208 -10.5815 -4.09807
RightLeg  11.7132 1.4893 2.63095
RightFoot  1.15904 0.284072 -2.51934
RightToes  5.47152e-009 0 -3.6325e-017
Spine  15.2042 -1.2425 8.47498
Spine1  10.316 1.49064 -7.17487
HEad  -13.4684 3.00881 -6.59298
LeftShoulder1  0.91804 0.405287 -23.3223
LeftArm  -7.01575 -31.2906 -51.1379
LeftForeArm  12.6018 -37.5029 -7.84359
LeftHand  -0.0906616 3.22381 4.1068
RightShoulder  0.45361 -1.66886 18.3918
RightArm  -19.9553 27.0032 35.2287
RightForeArm  -2.91478 49.0492 13.1623
RightHand  -0.959322 5.6367 -10.3549
LeftUpLeg  -14.8128 1.72873 -0.790681
LeftLeg  1.48005 -13.4345 -0.436105
LeftFoot  11.1614 1.2367 -6.66342
LeftToes  -4.29285e-010 1.49941e-010 2.15559e-012
699
root  -65.4499 40.5622 -4.13678 -14.8145 -76.6593 16.15
RightUpLeg  -12.8063 -11.1653 -4.91875
RightLeg  11.5708 0.320116 2.71326
RightFoot  1.07416 0.267419 -2.38885
RightToes  5.47152e-009 0 -3.6325e-017
Spine  14.6837 -1.09636 8.70434
Spine1  10.9776 1.69728 -7.17011
HEad  -13.1011 3.64998 -7.6981
LeftShoulder1  0.792484 1.03646 -25.8937
LeftArm  0.589092 -24.7496 -50.88
LeftForeArm  12.0851 -31.131 -6.00675
LeftHand  -0.0965767 3.63004 5.13348
RightShoulder  0.313487 -2.34084 21.1147
RightArm  -13.1403 19.8986 35.4763
RightForeArm  -6.62717 45.613 11.9185
RightHand  -0.717031 4.51222 -8.68717
LeftUpLeg  -13.7426 1.60507 -1.08623
LeftLeg  2.19657 -11.2596 -0.537911
LeftFoot  7.50625 1.67635 -10.2493
LeftToes  -4.29285e-010 1.49941e-010 2.15559e-012
700
root  -65.4381 40.6799 -4.26059 -16.4709 -74.9003 17.4199
RightUpLeg  -11.5533 -11.4892 -5.89664
RightLeg  10.4937 -0.845768 2.49965
RightFoot  1.43414 0.280886 -2.42046
RightToes  5.47152e-009 0 -3.6325e-017
Spine  13.9084 -0.888866 8.54133
Spine1  11.3093 2.13149 -7.84344
HEad  -12.178 4.41237 -8.10028
LeftShoulder1  0.750405 1.30838 -28.0204
LeftArm  4.88253 -18.7596 -49.9436
LeftForeArm  14.4822 -22.343 -5.15481
LeftHand  -0.0300256 5.17339 2.71259
RightShoulder  0.155185 -2.95238 23.0577
RightArm  -5.44223 14.0332 37.2421
RightForeArm  -13.6034 38.2807 9.64158
RightHand  -0.647652 3.94846 -8.31293
LeftUpLeg  -12.6587 1.82471 -1.7206
LeftLeg  4.24541 -6.68402 -0.785802
LeftFoot  3.81782 0.952332 -7.27287
LeftToes  -4.29285e-010 1.49941e-010 2.15559e-012
701
root  -65.4058 40.7774 -4.32877 -17.351 -73.1695 17.9032
RightUpLeg  -10.3366 -11.9026 -6.85825
RightLeg  9.53034 -1.93008 2.4103
RightFoot  1.65206 0.258183 -2.16608
RightToes  5.47152e-009 0 -3.6325e-017
Spine  12.9575 -0.821248 8.77539
Spine1  11.6766 2.578 -8.99949
HEad  -11.498 5.46268 -8.61633
LeftShoulder1  0.653588 1.68798 -30.0065
LeftArm  -0.565054 -14.0691 -47.7076
LeftForeArm  23.9794 -10.1002 -7.96245
LeftHand  -0.0254025 6.16701 2.74559
RightShoulder  0.0487109 -3.31856 24.5309
RightArm  2.51928 9.40382 39.9671
RightForeArm  -18.6267 28.3674 7.04013
RightHand  -0.664856 4.59971 -7.98315
LeftUpLeg  -10.8634 2.43891 -2.13899
LeftLeg  6.08685 -1.0786 -0.498973
LeftFoot  0.513891 0.41135 -4.04832
LeftToes  -4.29285e-010 1.49941e-010 2.15559e-012
702
root  -65.371 40.8557 -4.3559 -17.3862 -71.5403 17.7415
RightUpLeg  -9.30302 -12.2752 -7.65049
RightLeg  8.49153 -2.96393 2.42435
RightFoot  1.99819 0.268424 -2.17726
RightToes  5.47152e-009 0 -3.6325e-017
Spine  11.9031 -0.77021 8.55352
Spine1  11.7512 2.73422 -9.53492
HEad  -11.4823 6.85823 -8.9667
LeftShoulder1  0.399521 2.463 -32.186
LeftArm  -6.06228 -8.71211 -44.485
LeftForeArm  29.5999 0.498131 -7.74533
LeftHand  -0.0707785 5.03885 4.83821
RightShoulder  -0.118905 -3.84649 25.9298
RightArm  9.38984 6.29987 43.1459
RightForeArm  -17.6624 17.7252 5.51983
RightHand  -0.525894 3.44342 -7.18209
LeftUpLeg  -8.67846 3.65741 -2.06479
LeftLeg  7.39586 2.90215 -0.172576
LeftFoot  -1.78154 0.255559 -2.94473
LeftToes  -4.29285e-010 1.49941e-010 2.15559e-012
